<svg xmlns="http://www.w3.org/2000/svg" xmlns:xlink="http://www.w3.org/1999/xlink" version="1.1" width="25" height="25" viewBox="0 0 256 256" xml:space="preserve">

<defs>
</defs>
<g style="stroke: none; stroke-width: 0; stroke-dasharray: none; stroke-linecap: butt; stroke-linejoin: miter; stroke-miterlimit: 10; fill: none; fill-rule: nonzero; opacity: 1;" transform="translate(1.4065934065934016 1.4065934065934016) scale(2.81 2.81)" >
	<path d="M 68.338 31.526 c -0.277 -0.479 -0.89 -0.643 -1.366 -0.366 l -3.982 2.299 l 0.749 -3.141 c 0.128 -0.537 -0.203 -1.077 -0.74 -1.205 c -0.535 -0.126 -1.077 0.203 -1.205 0.741 l -1.188 4.981 l -2.723 1.572 l 0.749 -3.141 c 0.128 -0.537 -0.203 -1.077 -0.741 -1.205 c -0.529 -0.126 -1.076 0.204 -1.204 0.741 l -1.187 4.981 L 46 43.268 V 32.3 l 3.721 -3.519 c 0.401 -0.379 0.419 -1.013 0.039 -1.414 c -0.379 -0.402 -1.014 -0.417 -1.414 -0.04 L 46 29.547 v -3.144 l 3.721 -3.519 c 0.401 -0.379 0.419 -1.013 0.039 -1.414 c -0.379 -0.402 -1.014 -0.417 -1.414 -0.04 L 46 23.649 v -4.597 c 0 -0.552 -0.448 -1 -1 -1 s -1 0.448 -1 1 v 4.598 l -2.346 -2.219 c -0.401 -0.379 -1.034 -0.362 -1.414 0.04 c -0.379 0.401 -0.362 1.034 0.04 1.414 L 44 26.402 v 3.145 l -2.346 -2.219 c -0.401 -0.379 -1.034 -0.362 -1.414 0.04 c -0.379 0.401 -0.362 1.034 0.04 1.414 L 44 32.3 v 10.968 l -9.499 -5.484 l -1.187 -4.982 c -0.128 -0.538 -0.667 -0.869 -1.205 -0.741 c -0.537 0.128 -0.869 0.667 -0.741 1.205 l 0.749 3.141 l -2.724 -1.572 l -1.187 -4.981 c -0.128 -0.537 -0.665 -0.871 -1.205 -0.741 c -0.537 0.128 -0.869 0.667 -0.741 1.205 l 0.749 3.141 l -3.982 -2.299 c -0.48 -0.277 -1.09 -0.112 -1.366 0.366 s -0.112 1.09 0.366 1.366 l 3.981 2.299 l -3.094 0.922 c -0.529 0.158 -0.831 0.715 -0.673 1.244 c 0.129 0.434 0.527 0.715 0.958 0.715 c 0.095 0 0.191 -0.014 0.286 -0.042 l 4.907 -1.462 l 2.723 1.572 l -3.094 0.922 c -0.529 0.158 -0.831 0.715 -0.673 1.244 c 0.129 0.434 0.527 0.715 0.958 0.715 c 0.095 0 0.191 -0.014 0.286 -0.042 l 4.907 -1.462 L 42.999 45 l -9.499 5.484 l -4.907 -1.462 c -0.528 -0.158 -1.086 0.143 -1.244 0.673 c -0.158 0.529 0.144 1.086 0.673 1.243 l 3.095 0.922 l -2.723 1.572 l -4.908 -1.462 c -0.528 -0.157 -1.086 0.143 -1.244 0.673 c -0.158 0.529 0.144 1.086 0.673 1.243 l 3.096 0.922 l -3.983 2.299 c -0.479 0.276 -0.642 0.888 -0.366 1.366 c 0.186 0.321 0.521 0.5 0.867 0.5 c 0.169 0 0.342 -0.043 0.499 -0.134 l 3.982 -2.299 l -0.749 3.141 c -0.128 0.537 0.204 1.076 0.741 1.204 c 0.078 0.019 0.156 0.027 0.233 0.027 c 0.452 0 0.862 -0.309 0.972 -0.769 l 1.187 -4.98 l 2.724 -1.573 l -0.749 3.141 c -0.128 0.537 0.204 1.076 0.741 1.204 c 0.078 0.019 0.156 0.027 0.233 0.027 c 0.452 0 0.862 -0.309 0.972 -0.769 l 1.187 -4.981 L 44 46.732 V 57.7 l -3.72 3.518 c -0.401 0.38 -0.419 1.013 -0.04 1.414 c 0.197 0.208 0.461 0.313 0.727 0.313 c 0.247 0 0.494 -0.091 0.687 -0.273 L 44 60.453 v 3.145 l -3.72 3.518 c -0.401 0.38 -0.419 1.013 -0.04 1.414 c 0.197 0.208 0.461 0.313 0.727 0.313 c 0.247 0 0.494 -0.091 0.687 -0.273 L 44 66.35 v 4.598 c 0 0.553 0.448 1 1 1 s 1 -0.447 1 -1 v -4.598 l 2.346 2.219 c 0.193 0.183 0.44 0.273 0.688 0.273 c 0.265 0 0.53 -0.104 0.727 -0.313 c 0.38 -0.401 0.362 -1.034 -0.039 -1.414 L 46 63.598 v -3.145 l 2.346 2.219 c 0.193 0.183 0.44 0.273 0.688 0.273 c 0.265 0 0.53 -0.104 0.727 -0.313 c 0.38 -0.401 0.362 -1.034 -0.039 -1.414 L 46 57.7 V 46.733 l 9.5 5.485 l 1.187 4.98 c 0.109 0.46 0.52 0.769 0.972 0.769 c 0.077 0 0.155 -0.009 0.232 -0.027 c 0.538 -0.128 0.869 -0.667 0.741 -1.204 l -0.749 -3.141 l 2.723 1.572 l 1.188 4.981 c 0.109 0.459 0.52 0.768 0.972 0.768 c 0.077 0 0.155 -0.009 0.233 -0.027 c 0.537 -0.128 0.868 -0.667 0.74 -1.205 l -0.749 -3.139 l 3.981 2.299 c 0.157 0.091 0.329 0.134 0.499 0.134 c 0.346 0 0.682 -0.179 0.867 -0.5 c 0.276 -0.479 0.112 -1.09 -0.366 -1.366 l -3.983 -2.3 l 3.095 -0.922 c 0.529 -0.157 0.831 -0.714 0.673 -1.243 c -0.157 -0.529 -0.711 -0.831 -1.243 -0.673 l -4.908 1.462 l -2.723 -1.572 l 3.095 -0.922 c 0.529 -0.157 0.831 -0.714 0.673 -1.243 c -0.157 -0.528 -0.714 -0.83 -1.243 -0.673 l -4.908 1.462 L 47 45 l 9.499 -5.484 l 4.908 1.463 c 0.095 0.028 0.191 0.042 0.285 0.042 c 0.432 0 0.829 -0.281 0.958 -0.715 c 0.158 -0.529 -0.144 -1.086 -0.673 -1.244 l -3.094 -0.922 l 2.723 -1.572 l 4.908 1.462 c 0.095 0.028 0.191 0.042 0.285 0.042 c 0.432 0 0.829 -0.281 0.958 -0.715 c 0.158 -0.529 -0.144 -1.086 -0.673 -1.244 l -3.094 -0.922 l 3.982 -2.299 C 68.45 32.616 68.614 32.004 68.338 31.526 z" style="stroke: none; stroke-width: 1; stroke-dasharray: none; stroke-linecap: butt; stroke-linejoin: miter; stroke-miterlimit: 10; fill: rgb(40,203,247); fill-rule: nonzero; opacity: 1;" transform=" matrix(1 0 0 1 0 0) " stroke-linecap="round" />
	<path d="M 27.872 15.92 c 1.001 0 1.813 -0.811 1.813 -1.813 s -0.812 -1.813 -1.813 -1.813 c -1.001 0 -1.813 0.812 -1.813 1.813 S 26.871 15.92 27.872 15.92 z" style="stroke: none; stroke-width: 1; stroke-dasharray: none; stroke-linecap: butt; stroke-linejoin: miter; stroke-miterlimit: 10; fill: rgb(40,203,247); fill-rule: nonzero; opacity: 1;" transform=" matrix(1 0 0 1 0 0) " stroke-linecap="round" />
	<path d="M 80.158 24.382 c -1.001 0 -1.813 0.811 -1.813 1.813 s 0.811 1.813 1.813 1.813 s 1.813 -0.811 1.813 -1.813 S 81.159 24.382 80.158 24.382 z" style="stroke: none; stroke-width: 1; stroke-dasharray: none; stroke-linecap: butt; stroke-linejoin: miter; stroke-miterlimit: 10; fill: rgb(40,203,247); fill-rule: nonzero; opacity: 1;" transform=" matrix(1 0 0 1 0 0) " stroke-linecap="round" />
	<path d="M 10.282 57.429 c -1.001 0 -1.813 0.812 -1.813 1.813 s 0.812 1.813 1.813 1.813 c 1.001 0 1.813 -0.811 1.813 -1.813 S 11.283 57.429 10.282 57.429 z" style="stroke: none; stroke-width: 1; stroke-dasharray: none; stroke-linecap: butt; stroke-linejoin: miter; stroke-miterlimit: 10; fill: rgb(40,203,247); fill-rule: nonzero; opacity: 1;" transform=" matrix(1 0 0 1 0 0) " stroke-linecap="round" />
	<circle cx="80.155" cy="57.535000000000004" r="1.045" style="stroke: none; stroke-width: 1; stroke-dasharray: none; stroke-linecap: butt; stroke-linejoin: miter; stroke-miterlimit: 10; fill: rgb(40,203,247); fill-rule: nonzero; opacity: 1;" transform="  matrix(1 0 0 1 0 0) "/>
	<path d="M 63.443 15.748 c 0.577 0 1.045 -0.468 1.045 -1.045 c 0 -0.577 -0.468 -1.045 -1.045 -1.045 s -1.045 0.468 -1.045 1.045 C 62.398 15.28 62.866 15.748 63.443 15.748 z" style="stroke: none; stroke-width: 1; stroke-dasharray: none; stroke-linecap: butt; stroke-linejoin: miter; stroke-miterlimit: 10; fill: rgb(40,203,247); fill-rule: nonzero; opacity: 1;" transform=" matrix(1 0 0 1 0 0) " stroke-linecap="round" />
	<circle cx="13.295" cy="36.645" r="1.045" style="stroke: none; stroke-width: 1; stroke-dasharray: none; stroke-linecap: butt; stroke-linejoin: miter; stroke-miterlimit: 10; fill: rgb(40,203,247); fill-rule: nonzero; opacity: 1;" transform="  matrix(1 0 0 1 0 0) "/>
	<circle cx="31.055" cy="69.025" r="1.045" style="stroke: none; stroke-width: 1; stroke-dasharray: none; stroke-linecap: butt; stroke-linejoin: miter; stroke-miterlimit: 10; fill: rgb(40,203,247); fill-rule: nonzero; opacity: 1;" transform="  matrix(1 0 0 1 0 0) "/>
	<path d="M 64.487 75.574 c -1.001 0 -1.813 0.812 -1.813 1.813 c 0 1.001 0.811 1.813 1.813 1.813 s 1.813 -0.812 1.813 -1.813 C 66.3 76.386 65.488 75.574 64.487 75.574 z" style="stroke: none; stroke-width: 1; stroke-dasharray: none; stroke-linecap: butt; stroke-linejoin: miter; stroke-miterlimit: 10; fill: rgb(40,203,247); fill-rule: nonzero; opacity: 1;" transform=" matrix(1 0 0 1 0 0) " stroke-linecap="round" />
	<path d="M 26.877 76.619 c -1.001 0 -1.813 0.812 -1.813 1.813 c 0 1.001 0.811 1.813 1.813 1.813 s 1.813 -0.812 1.813 -1.813 C 28.69 77.43 27.878 76.619 26.877 76.619 z" style="stroke: none; stroke-width: 1; stroke-dasharray: none; stroke-linecap: butt; stroke-linejoin: miter; stroke-miterlimit: 10; fill: rgb(40,203,247); fill-rule: nonzero; opacity: 1;" transform=" matrix(1 0 0 1 0 0) " stroke-linecap="round" />
	<path d="M 8.47 22.186 c 0 1.001 0.812 1.813 1.813 1.813 c 1.001 0 1.813 -0.811 1.813 -1.813 s -0.812 -1.813 -1.813 -1.813 C 9.281 20.374 8.47 21.185 8.47 22.186 z" style="stroke: none; stroke-width: 1; stroke-dasharray: none; stroke-linecap: butt; stroke-linejoin: miter; stroke-miterlimit: 10; fill: rgb(40,203,247); fill-rule: nonzero; opacity: 1;" transform=" matrix(1 0 0 1 0 0) " stroke-linecap="round" />
	<path d="M 88.188 43.291 c -1.001 0 -1.813 0.811 -1.813 1.813 s 0.812 1.813 1.813 1.813 S 90 46.104 90 45.103 S 89.189 43.291 88.188 43.291 z" style="stroke: none; stroke-width: 1; stroke-dasharray: none; stroke-linecap: butt; stroke-linejoin: miter; stroke-miterlimit: 10; fill: rgb(40,203,247); fill-rule: nonzero; opacity: 1;" transform=" matrix(1 0 0 1 0 0) " stroke-linecap="round" />
	<path d="M 1.813 44.058 C 0.811 44.058 0 44.87 0 45.871 c 0 1.001 0.811 1.813 1.813 1.813 s 1.813 -0.812 1.813 -1.813 C 3.625 44.87 2.814 44.058 1.813 44.058 z" style="stroke: none; stroke-width: 1; stroke-dasharray: none; stroke-linecap: butt; stroke-linejoin: miter; stroke-miterlimit: 10; fill: rgb(40,203,247); fill-rule: nonzero; opacity: 1;" transform=" matrix(1 0 0 1 0 0) " stroke-linecap="round" />
	<circle cx="77.025" cy="44.995000000000005" r="1.045" style="stroke: none; stroke-width: 1; stroke-dasharray: none; stroke-linecap: butt; stroke-linejoin: miter; stroke-miterlimit: 10; fill: rgb(40,203,247); fill-rule: nonzero; opacity: 1;" transform="  matrix(1 0 0 1 0 0) "/>
	<path d="M 46.727 6.345 c 0.577 0 1.045 -0.468 1.045 -1.045 c 0 -0.577 -0.468 -1.045 -1.045 -1.045 c -0.577 0 -1.045 0.468 -1.045 1.045 C 45.682 5.877 46.15 6.345 46.727 6.345 z" style="stroke: none; stroke-width: 1; stroke-dasharray: none; stroke-linecap: butt; stroke-linejoin: miter; stroke-miterlimit: 10; fill: rgb(40,203,247); fill-rule: nonzero; opacity: 1;" transform=" matrix(1 0 0 1 0 0) " stroke-linecap="round" />
	<path d="M 46.727 83.655 c -0.577 0 -1.045 0.468 -1.045 1.045 c 0 0.577 0.468 1.045 1.045 1.045 c 0.577 0 1.045 -0.468 1.045 -1.045 C 47.772 84.123 47.304 83.655 46.727 83.655 z" style="stroke: none; stroke-width: 1; stroke-dasharray: none; stroke-linecap: butt; stroke-linejoin: miter; stroke-miterlimit: 10; fill: rgb(40,203,247); fill-rule: nonzero; opacity: 1;" transform=" matrix(1 0 0 1 0 0) " stroke-linecap="round" />
	<path d="M 77.024 8.435 c -0.577 0 -1.045 0.468 -1.045 1.045 c 0 0.577 0.468 1.045 1.045 1.045 c 0.577 0 1.045 -0.468 1.045 -1.045 C 78.069 8.902 77.601 8.435 77.024 8.435 z" style="stroke: none; stroke-width: 1; stroke-dasharray: none; stroke-linecap: butt; stroke-linejoin: miter; stroke-miterlimit: 10; fill: rgb(40,203,247); fill-rule: nonzero; opacity: 1;" transform=" matrix(1 0 0 1 0 0) " stroke-linecap="round" />
	<path d="M 9.117 10.524 c 0.577 0 1.045 -0.468 1.045 -1.045 c 0 -0.577 -0.468 -1.045 -1.045 -1.045 c -0.577 0 -1.045 0.468 -1.045 1.045 C 8.072 10.056 8.54 10.524 9.117 10.524 z" style="stroke: none; stroke-width: 1; stroke-dasharray: none; stroke-linecap: butt; stroke-linejoin: miter; stroke-miterlimit: 10; fill: rgb(40,203,247); fill-rule: nonzero; opacity: 1;" transform=" matrix(1 0 0 1 0 0) " stroke-linecap="round" />
	<path d="M 59.264 65.895 c -0.577 0 -1.045 0.468 -1.045 1.045 c 0 0.577 0.468 1.045 1.045 1.045 c 0.577 0 1.045 -0.468 1.045 -1.045 C 60.308 66.362 59.841 65.895 59.264 65.895 z" style="stroke: none; stroke-width: 1; stroke-dasharray: none; stroke-linecap: butt; stroke-linejoin: miter; stroke-miterlimit: 10; fill: rgb(40,203,247); fill-rule: nonzero; opacity: 1;" transform=" matrix(1 0 0 1 0 0) " stroke-linecap="round" />
	<path d="M 76.069 67.073 c -0.577 0 -1.045 0.468 -1.045 1.045 c 0 0.577 0.468 1.045 1.045 1.045 c 0.577 0 1.045 -0.468 1.045 -1.045 C 77.114 67.541 76.646 67.073 76.069 67.073 z" style="stroke: none; stroke-width: 1; stroke-dasharray: none; stroke-linecap: butt; stroke-linejoin: miter; stroke-miterlimit: 10; fill: rgb(40,203,247); fill-rule: nonzero; opacity: 1;" transform=" matrix(1 0 0 1 0 0) " stroke-linecap="round" />
	<path d="M 12.251 70.073 c -0.577 0 -1.045 0.468 -1.045 1.045 c 0 0.577 0.468 1.045 1.045 1.045 c 0.577 0 1.045 -0.468 1.045 -1.045 C 13.296 70.541 12.828 70.073 12.251 70.073 z" style="stroke: none; stroke-width: 1; stroke-dasharray: none; stroke-linecap: butt; stroke-linejoin: miter; stroke-miterlimit: 10; fill: rgb(40,203,247); fill-rule: nonzero; opacity: 1;" transform=" matrix(1 0 0 1 0 0) " stroke-linecap="round" />
	<path d="M 9.251 80.073 c -0.577 0 -1.045 0.468 -1.045 1.045 c 0 0.577 0.468 1.045 1.045 1.045 c 0.577 0 1.045 -0.468 1.045 -1.045 C 10.296 80.541 9.828 80.073 9.251 80.073 z" style="stroke: none; stroke-width: 1; stroke-dasharray: none; stroke-linecap: butt; stroke-linejoin: miter; stroke-miterlimit: 10; fill: rgb(40,203,247); fill-rule: nonzero; opacity: 1;" transform=" matrix(1 0 0 1 0 0) " stroke-linecap="round" />
	<path d="M 80.251 80.073 c -0.577 0 -1.045 0.468 -1.045 1.045 c 0 0.577 0.468 1.045 1.045 1.045 c 0.577 0 1.045 -0.468 1.045 -1.045 C 81.296 80.541 80.828 80.073 80.251 80.073 z" style="stroke: none; stroke-width: 1; stroke-dasharray: none; stroke-linecap: butt; stroke-linejoin: miter; stroke-miterlimit: 10; fill: rgb(40,203,247); fill-rule: nonzero; opacity: 1;" transform=" matrix(1 0 0 1 0 0) " stroke-linecap="round" />
</g>
</svg>